<?xml version="1.0" encoding="UTF-8" standalone="no"?><!DOCTYPE svg PUBLIC "-//W3C//DTD SVG 1.1//EN" "http://www.w3.org/Graphics/SVG/1.1/DTD/svg11.dtd"><svg width="100%" height="100%" viewBox="0 0 4267 4267" version="1.1" xmlns="http://www.w3.org/2000/svg" xmlns:xlink="http://www.w3.org/1999/xlink" xml:space="preserve" xmlns:serif="http://www.serif.com/" style="fill-rule:evenodd;clip-rule:evenodd;stroke-linejoin:round;stroke-miterlimit:2;"><rect x="0" y="0" width="4266.67" height="4266.67" style="fill:#111;fill-rule:nonzero;"/><path d="M0,0l4266.67,0l-0,4266.67l-4266.67,-0l0,-4266.67Zm933.333,787.5c-3.861,3.389 -7.723,6.778 -11.702,10.27c-28.465,25.558 -55.667,52.384 -82.829,79.313c-3.663,3.609 -7.327,7.218 -11.101,10.937c-21.821,21.792 -41.893,44.345 -61.17,68.415c-6.514,8.13 -13.122,16.083 -19.982,23.92c-67.211,77.076 -125.145,164.175 -175.716,252.978c-2.002,3.509 -4.004,7.018 -6.067,10.633c-107.538,189.951 -174.685,395.245 -209.297,610.201c-0.845,5.186 -1.69,10.373 -2.561,15.717c-12.98,84.145 -17.11,168.225 -16.97,253.293c-0.001,4.765 -0.002,9.529 -0.002,14.438c0.13,86.968 5.743,172.178 18.231,258.218c0.623,4.37 1.246,8.74 1.888,13.243c3.917,26.385 9.094,52.369 14.778,78.424c1.05,4.994 2.1,9.988 3.182,15.133c48.792,231.112 139.651,453.653 275.985,647.367c2.033,2.906 4.066,5.813 6.16,8.807c30.221,43.044 61.835,84.682 95.604,125.004c4.223,5.05 8.426,10.118 12.602,15.206c31.05,37.819 64.874,72.653 99.436,107.233c2.158,2.163 4.317,4.325 6.541,6.553c24.414,24.409 49.14,48.196 75.49,70.53c4.256,3.703 8.51,7.408 12.761,11.117c94.365,80.938 198.758,150.655 308.073,209.717c3.754,2.048 7.508,4.096 11.377,6.207c193.808,105.317 403.5,172.449 621.956,202.126c4.428,0.629 8.856,1.258 13.418,1.906c144.747,19.905 296.154,18.22 440.749,-1.906c4.88,-0.647 9.76,-1.293 14.788,-1.959c180.637,-24.067 352.032,-73.992 518.545,-148.041c3.591,-1.589 7.181,-3.177 10.881,-4.814c168.852,-75.354 322.687,-183.39 458.976,-307.653c8.667,-7.789 17.524,-15.259 26.497,-22.689c3.953,-3.524 7.906,-7.047 11.979,-10.677l0,-8.334c2.278,-0.875 4.555,-1.751 6.901,-2.653c13.321,-7.748 22.547,-18.512 32.683,-29.899c4.463,-4.938 8.928,-9.875 13.395,-14.811c2.271,-2.523 4.542,-5.046 6.883,-7.646c6.449,-7.099 12.988,-14.099 19.582,-21.065c27.695,-29.32 53.141,-59.784 77.61,-91.837c5.208,-6.778 10.493,-13.485 15.814,-20.175c49.404,-62.719 91.158,-130.505 131.299,-199.414c1.815,-3.091 3.63,-6.182 5.499,-9.367c116.958,-200.19 180.562,-426.378 211.949,-654.695c0.696,-4.996 1.392,-9.992 2.11,-15.139c9.86,-74.405 10.611,-148.711 10.65,-223.663c0.003,-4.891 0.006,-9.781 0.009,-14.82c-0.069,-75.494 -2.428,-149.205 -13.55,-223.982c-0.671,-4.75 -1.342,-9.499 -2.033,-14.392c-24.196,-167.677 -71.71,-333.99 -143.146,-487.724c-4.694,-10.111 -9.274,-20.267 -13.838,-30.436c-64.551,-142.051 -153.69,-276.166 -257.65,-392.448c-3.341,-3.755 -6.682,-7.509 -10.124,-11.377c-6.134,-6.846 -12.291,-13.672 -18.473,-20.476c-6.02,-6.636 -11.998,-13.31 -17.936,-20.019c-30.687,-34.598 -62.662,-68.108 -97.884,-98.145c-7.998,-6.822 -15.91,-13.72 -23.796,-20.67c-33.235,-29.216 -67.06,-57.132 -102.62,-83.48c-2.787,-2.083 -5.573,-4.167 -8.444,-6.313c-42.56,-31.742 -86,-61.071 -131.791,-87.95c-6.558,-3.853 -13.101,-7.732 -19.629,-11.637c-277.391,-165.852 -605.64,-254.927 -928.678,-253.735c-4.32,0.007 -8.639,0.015 -13.09,0.023c-429.851,1.262 -855.089,151.638 -1194.2,447.112Z" style="fill:#111;fill-rule:nonzero;"/><path d="M3150,966.667c4.125,1.375 8.25,2.75 12.5,4.166c-1.943,27.665 -7.351,49.146 -19.01,74.219c-1.489,3.258 -2.977,6.516 -4.51,9.873c-59.612,127.083 -171.35,214.397 -300.626,262.78c-164.222,58.382 -339.119,45.988 -508.531,21.5c-14.099,-2.034 -28.205,-3.979 -42.323,-5.872c-4.336,-0.608 -8.672,-1.216 -13.139,-1.842c-4.038,-0.488 -8.075,-0.975 -12.235,-1.478c-5.285,-0.675 -5.285,-0.675 -10.676,-1.363c-16.056,0.848 -25.052,9.202 -35.955,20.373c-23.202,30.163 -35.555,65.651 -40.755,103.06c-0.65,4.512 -1.3,9.024 -1.97,13.672c-6.523,55.276 -6.733,110.372 -6.76,165.94c-0.02,8.965 -0.041,17.931 -0.065,26.897c-0.046,19.204 -0.082,38.408 -0.108,57.612c-0.045,30.426 -0.13,60.852 -0.222,91.278c-0.257,86.485 -0.483,172.971 -0.621,259.456c-0.076,47.845 -0.197,95.69 -0.366,143.535c-0.088,25.262 -0.153,50.524 -0.162,75.786c-0.009,23.773 -0.076,47.546 -0.185,71.318c-0.03,8.672 -0.039,17.343 -0.025,26.014c0.089,64.103 -5.582,124.67 -23.631,186.461c-0.883,3.076 -1.766,6.152 -2.676,9.321c-16.913,57.677 -38.004,113.695 -60.619,169.352c-2.242,5.522 -4.469,11.05 -6.683,16.583c-3.123,7.781 -6.317,15.532 -9.514,23.282c-1.844,4.511 -3.687,9.021 -5.587,13.667c-5.546,10.243 -5.546,10.243 -18.046,14.41c-56.706,-90.754 -93.644,-185.491 -108.333,-291.667c-0.556,-3.986 -0.556,-3.986 -1.123,-8.053c-4.39,-36.944 -3.694,-74.084 -3.715,-111.224c-0.02,-7.835 -0.041,-15.669 -0.063,-23.504c-0.054,-21.197 -0.082,-42.395 -0.1,-63.592c-0.012,-13.283 -0.029,-26.566 -0.048,-39.849c-0.057,-41.674 -0.097,-83.348 -0.113,-125.021c-0.019,-47.891 -0.092,-95.781 -0.213,-143.672c-0.09,-37.157 -0.132,-74.314 -0.138,-111.471c-0.004,-22.125 -0.028,-44.251 -0.103,-66.377c-0.069,-20.855 -0.077,-41.71 -0.041,-62.566c0.003,-7.584 -0.014,-15.169 -0.056,-22.753c-0.342,-66.045 4.764,-133.214 24.463,-196.658c1.54,-5.023 1.54,-5.023 3.111,-10.148c31.218,-95.429 93.67,-193.246 182.305,-244.279c-144.65,-41.276 -292.27,-76.866 -441.666,-95.833c-2.645,-0.354 -5.289,-0.709 -8.013,-1.074c-47.763,-6.34 -94.895,-8.693 -143.065,-8.575c-11.141,0.014 -22.278,-0.085 -33.419,-0.19c-114.516,-0.421 -236.765,21.651 -323.837,101.506c-4.407,3.907 -4.407,3.907 -8.903,7.894c-57.972,54.218 -89.51,134.31 -92.399,212.679c0.62,59.807 19.165,112.211 59.115,157.031c41.754,39.911 99.781,61.632 157.031,61.198c3.248,-0.021 6.495,-0.041 9.841,-0.062c81.281,-1.613 152.736,-29.656 209.397,-88.496c9.878,-11.171 18.82,-22.841 27.474,-34.977c5.111,-6.934 5.111,-6.934 13.444,-15.267c10.938,1.562 10.938,1.562 20.834,4.166c4.447,47.138 -23.069,88.062 -50,125c-49.005,59.201 -121.274,87.034 -195.834,95.834c-81.905,7.495 -156.289,-18.059 -220.312,-68.23c-64.111,-55.753 -114.162,-132.865 -121.354,-219.27c-7.679,-127.352 34.087,-246.649 118.489,-342.188c6.306,-6.8 12.642,-13.571 19.011,-20.312c2.905,-3.175 5.811,-6.349 8.805,-9.619c24.72,-26.076 52.654,-46.223 82.861,-65.381c4.458,-2.836 8.916,-5.672 13.509,-8.594c56.383,-33.962 116.699,-56.417 180.502,-72.136c3.979,-0.994 7.958,-1.988 12.057,-3.013c68.672,-15.867 138.349,-17.711 208.516,-17.299c6.027,0.021 6.027,0.021 12.177,0.043c65.032,0.271 129.373,2.392 194.073,9.332c5.798,0.591 11.596,1.181 17.395,1.768c164.141,16.85 326.53,47.305 488.478,78.395c179.152,34.371 367.474,70.071 548.293,28.17c3.237,-0.736 6.474,-1.471 9.809,-2.229c86.536,-20.482 168.071,-62.897 229.059,-128.125c6.966,-7.146 6.966,-7.146 15.299,-11.312Z" style="fill:#fda729;fill-rule:nonzero;"/><path d="M2570.83,2479.17c5.319,10.637 4.725,18.179 4.772,30.089c0.027,4.553 0.053,9.105 0.081,13.796c0.004,4.956 0.009,9.912 0.014,15.018c0.021,7.667 0.021,7.667 0.042,15.489c0.021,10.869 0.031,21.738 0.03,32.607c-0,16.442 0.084,32.883 0.164,49.324c0.24,103.905 0.24,103.905 -9.269,152.01c-0.716,3.639 -1.431,7.279 -2.168,11.028c-2.064,9.522 -4.396,18.893 -6.947,28.295c-0.89,3.307 -1.78,6.614 -2.697,10.021c-41.246,146.52 -144.35,268.882 -275.363,343.69c-29.398,16.005 -59.867,27.008 -91.992,36.133c-4.877,1.402 -9.754,2.803 -14.779,4.248c-19.191,5.125 -36.112,8.897 -56.054,8.252c-35.373,-56.596 -16.223,-182.049 -2.246,-244.652c0.741,-3.14 1.482,-6.28 2.246,-9.515c0.805,-3.425 1.611,-6.849 2.441,-10.378c42.196,-172.79 139.605,-318.421 291.625,-412.976c123.894,-74.548 123.894,-74.548 160.1,-72.479Z" style="fill:#fe9416;fill-rule:nonzero;"/><path d="M1600,2512.5c19.565,1.955 35.615,3.682 53.239,12.842c3.478,1.796 6.956,3.593 10.54,5.444c3.617,1.958 7.234,3.916 10.961,5.933c3.813,2.038 7.626,4.076 11.555,6.177c57.728,31.547 108.34,69.583 155.372,115.437c2.615,2.358 5.231,4.716 7.926,7.146c96.166,88.925 154.527,233.853 179.574,359.521c0.714,3.117 1.428,6.233 2.163,9.444c6.71,31.764 7.314,62.916 7.028,95.211c-0.077,8.931 -0.086,17.859 -0.085,26.79c-0.092,26.021 -0.797,51.126 -4.94,76.888c-73.746,6.86 -166.567,-47.54 -223.177,-92.187c-121.572,-105.277 -193.146,-233.951 -210.156,-395.313c-2.379,-40.852 -1.602,-81.76 -1.042,-122.656c0.084,-10.804 0.16,-21.609 0.228,-32.414c0.181,-26.089 0.458,-52.176 0.814,-78.263Z" style="fill:#fe9416;fill-rule:nonzero;"/><path d="M2869.79,2778.39c4.888,0.005 4.888,0.005 9.874,0.011c34.591,0.362 67.463,3.748 99.501,17.437c-2.123,17.557 -11.858,25.746 -23.959,38.021c-43.396,45.8 -77.365,98.083 -109.635,152.084c-84.023,140.265 -199.265,243.933 -360.319,285.823c-74.785,18.407 -140.901,23.044 -214.421,-0.928l0,-8.333c4.641,-2.428 9.282,-4.855 14.063,-7.357c62.491,-33.32 118.055,-72.756 169.271,-121.81c3.824,-3.512 7.648,-7.025 11.588,-10.644c67.896,-63.683 122.972,-147.874 161.214,-232.422c19.202,-41.948 35.59,-67.665 79.802,-84.538c52.799,-17.472 107.396,-27.404 163.021,-27.344Z" style="fill:#fd9116;fill-rule:nonzero;"/><path d="M1419.53,2798.44c2.733,0.583 5.466,1.167 8.282,1.769c8.989,2.243 17.587,5.125 26.354,8.126c4.242,1.181 8.485,2.362 12.857,3.579c32.197,11.235 46.9,25.501 61.54,55.243c6.318,13.43 12.218,27.011 18.051,40.657c5.976,13.478 12.048,26.91 18.147,40.333c1.483,3.294 2.966,6.589 4.494,9.984c22.943,49.991 53.103,96.125 89.077,137.704c2.852,3.406 5.704,6.811 8.643,10.319c58.46,67.801 136.619,114.187 212.191,160.515c-58.081,32.267 -152.625,15.439 -213.461,-1.888c-146.074,-45.65 -237.416,-139.773 -313.75,-268.445c-36.553,-61.475 -77.408,-120.956 -126.207,-173.466c-4.916,-6.201 -4.916,-6.201 -4.916,-14.535c58.235,-27.334 136.704,-23.49 198.698,-9.896Z" style="fill:#fd8f17;fill-rule:nonzero;"/><path d="M2124.74,3308.59c16.282,10.301 28.683,19.986 37.76,37.239c3.763,19.492 1.739,36.125 -4.167,54.948c-17.937,25.224 -40.946,44.691 -70.833,53.386c-27.077,0.492 -43.191,-11.72 -62.5,-29.167c-18.772,-18.865 -24.194,-31.671 -26.302,-57.812c0.305,-18.219 5.94,-28.26 17.969,-42.188c30.735,-23.209 70.947,-30.005 108.073,-16.406Z" style="fill:#fb8917;fill-rule:nonzero;"/></svg>